<?xml version="1.0" encoding="UTF-8"?>
<svg version="1.1" xmlns="http://www.w3.org/2000/svg" width="500" height="500">
<path d="M0 0 C165 0 330 0 500 0 C500 165 500 330 500 500 C335 500 170 500 0 500 C0 335 0 170 0 0 Z " fill="#F0F0F0" transform="translate(0,0)"/>
<path d="M0 0 C1.60910365 0.84374107 3.20247742 1.7179708 4.78125 2.6171875 C6.15192627 3.39485474 6.15192627 3.39485474 7.55029297 4.18823242 C9.01039795 5.02318237 9.01039795 5.02318237 10.5 5.875 C12.02391357 6.74185425 12.02391357 6.74185425 13.57861328 7.6262207 C15.68768342 8.82666011 17.79591188 10.02857941 19.90332031 11.23193359 C22.79559984 12.8832966 25.69033816 14.53024848 28.5859375 16.17578125 C42.82612226 24.27806756 56.97811552 32.52485606 71 41 C68.28730634 43.90184275 65.69371467 45.94706461 62.2265625 47.875 C61.3190625 48.38546875 60.4115625 48.8959375 59.4765625 49.421875 C58.06503906 50.20304687 58.06503906 50.20304687 56.625 51 C54.76188713 52.03963757 52.8998782 53.08125635 51.0390625 54.125 C50.1615332 54.61355469 49.28400391 55.10210937 48.37988281 55.60546875 C46.36104252 56.78844123 44.52141186 58.04265537 42.6484375 59.4375 C40 61 40 61 37.63330078 60.75512695 C34.86743197 59.96198471 32.70975715 58.91549462 30.21875 57.48046875 C29.30472412 56.95864014 28.39069824 56.43681152 27.44897461 55.89916992 C26.47581299 55.33431885 25.50265137 54.76946777 24.5 54.1875 C23.48623291 53.60653564 22.47246582 53.02557129 21.42797852 52.42700195 C19.32029676 51.21851916 17.21427386 50.0071389 15.10986328 48.79296875 C11.27652126 46.58288366 7.43300761 44.39093609 3.58886719 42.19970703 C0.98862625 40.71665985 -1.60950741 39.22998754 -4.20703125 37.7421875 C-7.2637845 35.99180692 -10.32331206 34.24652172 -13.38671875 32.5078125 C-14.04599365 32.13309814 -14.70526855 31.75838379 -15.38452148 31.37231445 C-17.11514264 30.38911508 -18.84659881 29.40738588 -20.578125 28.42578125 C-23 27 -23 27 -24 26 C-31.02544328 26.14357173 -36.18999164 29.57459792 -42.125 33.0625 C-43.14166748 33.64797607 -44.15833496 34.23345215 -45.20581055 34.83666992 C-51.81200433 38.65909187 -58.343085 42.58969119 -64.76953125 46.70703125 C-67 48 -67 48 -69 48 C-69 72.75 -69 97.5 -69 123 C-67.35 123.66 -65.7 124.32 -64 125 C-62.45424195 125.81712181 -60.92438601 126.66489761 -59.41015625 127.5390625 C-58.54970703 128.03374023 -57.68925781 128.52841797 -56.80273438 129.03808594 C-55.44631836 129.8236084 -55.44631836 129.8236084 -54.0625 130.625 C-53.13115234 131.15899414 -52.19980469 131.69298828 -51.24023438 132.24316406 C-47.03634681 134.65553985 -42.84389031 137.08344792 -38.68359375 139.5703125 C-37.73697876 140.12984619 -37.73697876 140.12984619 -36.77124023 140.70068359 C-35.11340364 141.68281753 -33.46267264 142.67691797 -31.8125 143.671875 C-28.722976 145.13081689 -27.35054663 145.59813087 -24 145 C-21.44570506 143.71246921 -19.10331127 142.38549355 -16.6875 140.875 C-15.16720298 139.95354164 -13.64633605 139.03302314 -12.125 138.11328125 C-11.30386719 137.6126416 -10.48273438 137.11200195 -9.63671875 136.59619141 C-0.83542489 131.26814889 8.09002578 126.14342601 17 121 C17.97694824 120.43410156 18.95389648 119.86820312 19.96044922 119.28515625 C22.71573843 117.69655471 25.48065783 116.12644511 28.25 114.5625 C29.07733643 114.08369385 29.90467285 113.6048877 30.75708008 113.11157227 C31.5230249 112.68416748 32.28896973 112.2567627 33.078125 111.81640625 C33.74231445 111.43943604 34.40650391 111.06246582 35.09082031 110.67407227 C37.4937976 109.82565535 38.63233842 110.1324348 41 111 C43.10999429 112.1177267 45.18994177 113.29271006 47.25 114.5 C48.48660986 115.21938521 49.72360565 115.93810731 50.9609375 116.65625 C51.6115918 117.03523438 52.26224609 117.41421875 52.93261719 117.8046875 C56.56144908 119.90279342 60.21898773 121.94974637 63.875 124 C64.58301758 124.39767578 65.29103516 124.79535156 66.02050781 125.20507812 C67.68007096 126.13719532 69.33999389 127.0686719 71 128 C69.77504929 131.67485212 68.9204845 131.89787403 65.609375 133.71484375 C64.6827002 134.23006592 63.75602539 134.74528809 62.80126953 135.27612305 C61.79435059 135.82437744 60.78743164 136.37263184 59.75 136.9375 C57.63772705 138.10884538 55.52575419 139.28073206 53.4140625 140.453125 C52.3405957 141.04544922 51.26712891 141.63777344 50.16113281 142.24804688 C45.45912103 144.85398111 40.79014489 147.51627906 36.125 150.1875 C35.26503418 150.67871338 34.40506836 151.16992676 33.51904297 151.67602539 C28.67616799 154.44766126 23.85340099 157.25069078 19.04980469 160.08984375 C16.31091972 161.70833168 13.56536597 163.3153442 10.8203125 164.92333984 C9.12048968 165.92873397 7.43464233 166.95765271 5.75 167.98828125 C1.64466698 170.41466693 -0.99281246 171.96697746 -5.8125 172.125 C-9.44360932 170.84343201 -11.93821777 169.31500608 -15 167 C-12.26633381 164.06022717 -9.69019316 162.07220439 -6.1484375 160.1953125 C-5.21386719 159.69386719 -4.27929688 159.19242188 -3.31640625 158.67578125 C-2.34574219 158.16402344 -1.37507813 157.65226563 -0.375 157.125 C5.99085148 153.73854023 12.26688899 150.2823519 18.42822266 146.53564453 C21.21293389 144.87285417 24.03195432 143.28596432 26.8671875 141.7109375 C27.85460937 141.16179687 28.84203125 140.61265625 29.859375 140.046875 C31.89103582 138.92051382 33.92494289 137.79819593 35.9609375 136.6796875 C37.43046875 135.85984375 37.43046875 135.85984375 38.9296875 135.0234375 C39.80866699 134.53794434 40.68764648 134.05245117 41.59326172 133.55224609 C44.08786443 131.9433311 45.98423011 130.16898478 48 128 C47.236875 127.71125 46.47375 127.4225 45.6875 127.125 C43 126 43 126 40 124 C36.23289858 124.34305881 33.46740356 125.64803847 30.21875 127.51953125 C29.30480469 128.0412793 28.39085937 128.56302734 27.44921875 129.10058594 C26.47597656 129.66551758 25.50273437 130.23044922 24.5 130.8125 C22.97826172 131.68503418 22.97826172 131.68503418 21.42578125 132.57519531 C19.31744288 133.78454344 17.2106863 134.99665311 15.10546875 136.21142578 C12.19089548 137.89005501 9.26935022 139.55552501 6.34375 141.21484375 C5.45187988 141.72144531 4.56000977 142.22804688 3.64111328 142.75 C1.89005818 143.74449829 0.13843636 144.73799943 -1.61376953 145.73046875 C-5.5986995 148.00103195 -9.53617984 150.31081503 -13.3984375 152.78515625 C-14.07519531 153.21344727 -14.75195312 153.64173828 -15.44921875 154.08300781 C-16.68414181 154.87142979 -17.90926347 155.67554816 -19.12109375 156.49902344 C-21.9423135 158.29479984 -23.88639443 158.99657815 -27.2421875 159.09765625 C-32.55947753 157.54447694 -36.99612161 154.92962926 -41.75 152.125 C-43.25723633 151.25294922 -43.25723633 151.25294922 -44.79492188 150.36328125 C-46.86141152 149.16641217 -48.92521693 147.96489672 -50.98632812 146.75878906 C-53.80960408 145.1111157 -56.64370764 143.48464565 -59.484375 141.8671875 C-61.15642982 140.91177296 -62.82831418 139.95606003 -64.5 139 C-65.63646973 138.35248779 -65.63646973 138.35248779 -66.79589844 137.69189453 C-67.51293945 137.27794434 -68.22998047 136.86399414 -68.96875 136.4375 C-69.58169922 136.08558594 -70.19464844 135.73367188 -70.82617188 135.37109375 C-71.9022168 134.69240234 -71.9022168 134.69240234 -73 134 C-73.84673656 133.5395172 -73.84673656 133.5395172 -74.71057892 133.06973171 C-76.72383649 131.8545092 -78.35608985 130.68673609 -80 129 C-80.73657039 125.84607226 -80.98176339 123.69663333 -80.9375 120.54125977 C-80.95297882 119.70160675 -80.96845764 118.86195374 -80.98440552 117.99685669 C-81.02533686 115.22741697 -81.01476268 112.46106978 -81 109.69140625 C-81.00979801 107.76235498 -81.02138004 105.83331201 -81.03466797 103.90428162 C-81.0540035 99.86314381 -81.04702155 95.8230833 -81.02246094 91.78198242 C-80.99378421 86.60796887 -81.03747453 81.43748978 -81.10186768 76.26390171 C-81.14221756 72.2805033 -81.14046778 68.29795038 -81.12646484 64.31440544 C-81.12549254 62.40742586 -81.13839173 60.50038607 -81.16552734 58.59359932 C-81.34576459 43.73470983 -81.34576459 43.73470983 -78.13197327 39.59208679 C-75.80305934 38.00556047 -73.63314033 36.98406284 -71 36 C-69.95900146 35.36795654 -68.91800293 34.73591309 -67.84545898 34.0847168 C-66.90516846 33.54500244 -65.96487793 33.00528809 -64.99609375 32.44921875 C-63.93285889 31.83699463 -62.86962402 31.22477051 -61.77416992 30.59399414 C-60.67306885 29.96485107 -59.57196777 29.33570801 -58.4375 28.6875 C-57.29450439 28.03322021 -56.15150879 27.37894043 -54.97387695 26.70483398 C-52.69745598 25.40262155 -50.42037329 24.10156507 -48.14257812 22.80175781 C-45.39248019 21.2250236 -42.65445872 19.63025017 -39.921875 18.0234375 C-38.51048832 17.20300172 -37.09903646 16.38267805 -35.6875 15.5625 C-35.06738037 15.1914917 -34.44726074 14.8204834 -33.80834961 14.43823242 C-30.37363942 12.46386642 -27.946894 11.24446899 -24 12 C-21.38604005 13.33052916 -18.97666259 14.69962082 -16.5 16.25 C-14.97485473 17.17595724 -13.44877015 18.10036865 -11.921875 19.0234375 C-10.71821289 19.75578613 -10.71821289 19.75578613 -9.49023438 20.50292969 C-5.28423305 23.03147872 -1.01702048 25.45131645 3.25 27.875 C8.79053869 31.02392077 14.32386527 34.18248909 19.828125 37.39453125 C21.2527002 38.22138428 21.2527002 38.22138428 22.70605469 39.06494141 C24.52767136 40.12282889 26.3461991 41.18605877 28.16113281 42.25537109 C28.98452148 42.73184082 29.80791016 43.20831055 30.65625 43.69921875 C31.73616211 44.33089966 31.73616211 44.33089966 32.83789062 44.9753418 C35.24395548 46.1156144 37.36060731 46.6705206 40 47 C42.07089578 46.0694498 42.07089578 46.0694498 43.8125 44.5625 C44.41707031 44.08941406 45.02164063 43.61632812 45.64453125 43.12890625 C46.09183594 42.75636719 46.53914063 42.38382813 47 42 C44.49120501 39.16681941 41.70703668 37.58090346 38.3984375 35.77734375 C37.27655029 35.16125244 36.15466309 34.54516113 34.9987793 33.91040039 C34.40704926 33.58830597 33.81531921 33.26621155 33.20565796 32.93435669 C30.12442186 31.25651687 27.05259792 29.56162827 23.98046875 27.8671875 C23.3734462 27.53278152 22.76642365 27.19837555 22.14100647 26.85383606 C15.30878571 23.08148234 8.60307473 19.1079173 1.89648438 15.11865234 C-3.3650148 12.01512644 -8.6870937 9.01429549 -14 6 C-14 5.01 -14 4.02 -14 3 C-12.61825429 2.10291891 -11.21883261 1.23302348 -9.8125 0.375 C-9.03519531 -0.11226562 -8.25789063 -0.59953125 -7.45703125 -1.1015625 C-4.17858142 -2.30035974 -3.11952111 -1.43840586 0 0 Z " fill="#080808" transform="translate(254,132)"/>
<path d="M0 0 C2.7878592 1.4979542 5.40224719 3.19510971 8 5 C5.25773397 7.95709793 2.70118831 9.90212154 -0.875 11.75 C-1.82890625 12.26304687 -2.7828125 12.77609375 -3.765625 13.3046875 C-5.45701595 14.19123783 -7.1504197 15.0745785 -8.86132812 15.92285156 C-10.79607342 16.88241494 -12.70991247 17.87689276 -14.625 18.875 C-15.24101074 19.16600586 -15.85702148 19.45701172 -16.49169922 19.75683594 C-18.50744888 20.7525717 -18.50744888 20.7525717 -21 23 C-21.33 25.64 -21.66 28.28 -22 31 C1.76 31 25.52 31 50 31 C50 41.89 50 52.78 50 64 C26.24 64 2.48 64 -22 64 C-21.83043505 71.33355097 -21.83043505 71.33355097 -19.6081543 73.62329102 C-18.7251062 74.05919556 -18.7251062 74.05919556 -17.82421875 74.50390625 C-17.16615234 74.84881104 -16.50808594 75.19371582 -15.83007812 75.54907227 C-15.12302734 75.88350342 -14.41597656 76.21793457 -13.6875 76.5625 C-12.2325233 77.31143321 -10.77810173 78.0614458 -9.32421875 78.8125 C-8.5976709 79.17601562 -7.87112305 79.53953125 -7.12255859 79.9140625 C-4.00474401 81.50919009 -1.01292481 83.27706307 2 85.0625 C2.969375 85.63097656 3.93875 86.19945312 4.9375 86.78515625 C5.618125 87.18605469 6.29875 87.58695312 7 88 C5.62219276 92.13342172 3.82252521 93.01794989 0 95 C-6.86463874 94.94719509 -11.85909032 91.5732401 -17.625 88.125 C-19.0171875 87.31095703 -19.0171875 87.31095703 -20.4375 86.48046875 C-24.64282227 84.01631859 -28.82047562 81.50771463 -33 79 C-33 70.42 -33 61.84 -33 53 C-9.24 53 14.52 53 39 53 C39 49.37 39 45.74 39 42 C15.24 42 -8.52 42 -33 42 C-33 33.42 -33 24.84 -33 16 C-21.8125 9.6875 -21.8125 9.6875 -18.31176758 7.71362305 C-17.39032959 7.19324463 -16.4688916 6.67286621 -15.51953125 6.13671875 C-14.58214111 5.60780029 -13.64475098 5.07888184 -12.67895508 4.53393555 C-10.86853776 3.49731366 -9.075406 2.4299967 -7.29956055 1.33520508 C-4.42904511 -0.33151633 -3.27617155 -0.60952029 0 0 Z " fill="#060606" transform="translate(230,170)"/>
<path d="M0 0 C12.24185013 -0.40357748 12.24185013 -0.40357748 17 3 C18 4 18 4 18.1875 7.25 C18 11 18 11 16.8125 13.5 C15.85964736 16.43185428 16.19341589 17.07012571 17.375 19.8125 C18.179375 21.3903125 18.179375 21.3903125 19 23 C16.69 23 14.38 23 12 23 C9 17.25 9 17.25 9 15 C8.01 15 7.02 15 6 15 C6 17.64 6 20.28 6 23 C4.02 23 2.04 23 0 23 C0 15.41 0 7.82 0 0 Z " fill="#22262B" transform="translate(246,325)"/>
<path d="M0 0 C4.51315789 2.02631579 4.51315789 2.02631579 6 5 C2.52926748 7.31382168 1.87844371 7.10362024 -2.0625 6.5 C-4.65006107 6.05484859 -4.65006107 6.05484859 -7 6 C-9.1702792 7.7587364 -9.1702792 7.7587364 -9.23046875 9.91015625 C-9.53754032 13.76685951 -9.53754032 13.76685951 -8 17 C-5.66702567 17.04092937 -3.33294775 17.04241723 -1 17 C-0.67 16.34 -0.34 15.68 0 15 C-1.32 15 -2.64 15 -4 15 C-4 13.35 -4 11.7 -4 10 C-0.7 10 2.6 10 6 10 C6.59944878 18.15250345 6.59944878 18.15250345 4.1875 21.5625 C-0.54514112 23.69682835 -4.8941507 23.76779689 -10 23 C-13.53536291 20.97979262 -15.76937948 18.91561075 -17 15 C-17.480151 10.67864101 -17.29173086 8.5331633 -15.1875 4.6875 C-10.74995386 -0.7643424 -6.59773627 -0.70502126 0 0 Z " fill="#272B2F" transform="translate(366,325)"/>
<path d="M0 0 C3.60854389 1.80427195 5.81311066 3.44724796 8.75 6.125 C9.94882812 7.21167969 9.94882812 7.21167969 11.171875 8.3203125 C11.77515625 8.87460937 12.3784375 9.42890625 13 10 C13.33 6.7 13.66 3.4 14 0 C15.98 0 17.96 0 20 0 C20 7.59 20 15.18 20 23 C15.61736143 21.24694457 14.28086434 20.63266071 11.3125 17.4375 C8.93074456 14.8534832 8.93074456 14.8534832 6 13 C6 16.3 6 19.6 6 23 C4.02 23 2.04 23 0 23 C0 15.41 0 7.82 0 0 Z " fill="#25282D" transform="translate(274,325)"/>
<path d="M0 0 C3.5874856 1.7937428 6.16756222 3.6103797 9.25 6.125 C10.14203125 6.84945313 11.0340625 7.57390625 11.953125 8.3203125 C12.62859375 8.87460937 13.3040625 9.42890625 14 10 C14 6.7 14 3.4 14 0 C15.98 0 17.96 0 20 0 C20 7.59 20 15.18 20 23 C16.39145611 21.19572805 14.18688934 19.55275204 11.25 16.875 C10.05117188 15.78832031 10.05117188 15.78832031 8.828125 14.6796875 C8.22484375 14.12539063 7.6215625 13.57109375 7 13 C6.67 16.3 6.34 19.6 6 23 C4.02 23 2.04 23 0 23 C0 15.41 0 7.82 0 0 Z " fill="#23272B" transform="translate(320,325)"/>
<path d="M0 0 C4.95 0 9.9 0 15 0 C15 1.65 15 3.3 15 5 C12.03 5 9.06 5 6 5 C6 6.65 6 8.3 6 10 C8.64 10 11.28 10 14 10 C14 11.65 14 13.3 14 15 C11.36 15 8.72 15 6 15 C6 15.99 6 16.98 6 18 C8.97 18 11.94 18 15 18 C15 19.65 15 21.3 15 23 C10.05 23 5.1 23 0 23 C0 15.41 0 7.82 0 0 Z " fill="#202429" transform="translate(192,325)"/>
<path d="M0 0 C4.95 0 9.9 0 15 0 C15 1.65 15 3.3 15 5 C12.03 5 9.06 5 6 5 C6 6.65 6 8.3 6 10 C8.64 10 11.28 10 14 10 C14 11.65 14 13.3 14 15 C11.36 15 8.72 15 6 15 C6 15.99 6 16.98 6 18 C8.97 18 11.94 18 15 18 C15 19.65 15 21.3 15 23 C10.05 23 5.1 23 0 23 C0 15.41 0 7.82 0 0 Z " fill="#21252A" transform="translate(129,325)"/>
<path d="M0 0 C3 1 3 1 4.16674805 2.81005859 C4.52808838 3.58172363 4.88942871 4.35338867 5.26171875 5.1484375 C5.85629883 6.40914063 5.85629883 6.40914063 6.46289062 7.6953125 C7.06907227 9.02175781 7.06907227 9.02175781 7.6875 10.375 C8.10322266 11.2515625 8.51894531 12.128125 8.94726562 13.03125 C12 19.58786176 12 19.58786176 12 23 C10.02 23 8.04 23 6 23 C6 22.34 6 21.68 6 21 C4.52031676 21.14049518 3.04125484 21.28754826 1.5625 21.4375 C0.32693359 21.55931641 0.32693359 21.55931641 -0.93359375 21.68359375 C-2.98662025 21.78930815 -2.98662025 21.78930815 -4 23 C-5.99958364 23.04080783 -8.00045254 23.04254356 -10 23 C-8.41980408 17.7936703 -6.22115005 13.01626689 -3.875 8.125 C-3.50246094 7.34125 -3.12992188 6.5575 -2.74609375 5.75 C-1.83381003 3.83186501 -0.91733016 1.91572671 0 0 Z " fill="#2E3236" transform="translate(225,325)"/>
<path d="M0 0 C1.98 0 3.96 0 6 0 C6 5.94 6 11.88 6 18 C8.31 18 10.62 18 13 18 C13 19.65 13 21.3 13 23 C8.71 23 4.42 23 0 23 C0 15.41 0 7.82 0 0 Z " fill="#1D2126" transform="translate(170,325)"/>
<path d="M0 0 C1.98 0 3.96 0 6 0 C6 7.59 6 15.18 6 23 C4.02 23 2.04 23 0 23 C0 15.41 0 7.82 0 0 Z " fill="#1D2126" transform="translate(304,325)"/>
<path d="M0 0 C2.97 0 5.94 0 9 0 C9 1.65 9 3.3 9 5 C6.03 5 3.06 5 0 5 C0 3.35 0 1.7 0 0 Z " fill="#484B4F" transform="translate(152,337)"/>
<path d="M0 0 C1.65 0 3.3 0 5 0 C5.5625 1.9375 5.5625 1.9375 6 4 C5 5 5 5 2.4375 5.0625 C1.2309375 5.0315625 1.2309375 5.0315625 0 5 C0 3.35 0 1.7 0 0 Z " fill="#D8D8D9" transform="translate(252,330)"/>
</svg>
